<svg id="Layer_1" data-name="Layer 1" xmlns="http://www.w3.org/2000/svg" viewBox="0 0 272.64 147.11"><defs><style>.cls-1{fill:#fff;}</style></defs><title>ODL-Primary-White</title><path class="cls-1" d="M9.5,134.09c-3.89,0-6.89,2.64-6.89,6.51s3,6.51,6.89,6.51,6.89-2.64,6.89-6.51S13.39,134.09,9.5,134.09Zm0,9.66a3.16,3.16,0,1,1,3-3.15A3,3,0,0,1,9.5,143.75Zm15-9.46H17.75v12.59h3.81v-4h2.91a4.32,4.32,0,1,0,0-8.63ZM24,139.6H21.56v-2H24c.64,0,1.15.32,1.15,1S24.62,139.6,24,139.6Zm6.27-5.3H39.8v3.32H34.06v1.25h5.61v3.32H34.06v1.38H39.8v3.32H30.25Zm19.56,0h3.81v12.59H50l-4.64-6.38v6.38H41.5V134.3h3.93l4.38,6Zm16.29,0H60.47v12.59h5.64c3.94,0,6.89-2.28,6.89-6.3S70.06,134.3,66.09,134.3Zm0,9.27H64.28v-5.95h1.83a2.75,2.75,0,0,1,3,3A2.91,2.91,0,0,1,66.09,143.56Zm11-9.27-4.64,12.59h4.32l.45-1.47h4.53l.45,1.47h4.32L81.88,134.3Zm1.15,7.8L79.48,138l1.25,4.06Zm17.71-4.47H92.58v9.27H88.77v-9.27H85.39V134.3H95.94Zm3.51-3.32-4.64,12.59h4.32l.45-1.47h4.53l.45,1.47h4.32l-4.64-12.59Zm1.15,7.8,1.25-4.06,1.25,4.06Zm17.59,1.47H123v3.32h-8.59V134.3h3.81Zm6.31-9.27h3.81v12.59h-3.81Zm5.17,0h10.55v3.32h-3.36v9.27h-3.81v-9.27h-3.38Zm11.91,0h9.55v3.32H145.4v1.25H151v3.32H145.4v1.38h5.74v3.32h-9.55Zm22.5,4.32a4.19,4.19,0,0,0-4.53-4.32h-6.72v12.59h3.81v-4H158l1.74,4h4.34l-2.28-4.45A4.06,4.06,0,0,0,164.09,138.62Zm-5.12,1h-2.32v-2H159c.64,0,1.25.3,1.25,1S159.62,139.6,159,139.6Zm9.95-5.3-4.64,12.59h4.32l.45-1.47h4.53l.45,1.47h4.32l-4.64-12.59Zm1.15,7.8,1.25-4.06,1.25,4.06Zm11.59-1.49a3,3,0,0,0,3.06,3.15,2.67,2.67,0,0,0,2.43-1.83l3.28,1.51a5.94,5.94,0,0,1-5.72,3.68c-3.95,0-6.93-2.64-6.93-6.51s3-6.51,6.93-6.51a5.87,5.87,0,0,1,5.72,3.66l-3.28,1.53a2.67,2.67,0,0,0-2.43-1.83A3,3,0,0,0,181.67,140.6Zm17-6.3h4.28l-4.68,7.59v5h-3.81v-5l-4.72-7.59H194l2.34,4.25Zm-162.41-9c20.45,0,36.23-13.9,36.23-34.25S56.69,56.77,36.23,56.77,0,70.67,0,91,15.78,125.27,36.23,125.27Zm0-50.83c9.63,0,15.88,7.35,15.88,16.58S45.86,107.6,36.23,107.6,20.35,100.26,20.35,91,26.6,74.44,36.23,74.44Zm109.3,16.48c0-21.15-15.49-33.06-36.33-33.06H79.62v66.22H109.3C130,124.08,145.53,112.07,145.53,90.92ZM109.2,106.61H99.67V75.34h9.63c10.72,0,15.88,6.65,15.88,15.59C125.18,99.26,119.23,106.61,109.2,106.61Zm88.65,17.47H152.68V57.87h20.05v48.74h25.12ZM183.39,71.8v22l22-22h67.23V0H183.39Zm65.19-24h9.66V58.08h-9.66ZM231.65,25.87h9.66V58.08h-9.66Zm-16.94,10h9.66V58.08h-9.66ZM197.78,13.72h9.66V58.08h-9.66Z"/></svg>